<svg version="1.1" viewBox="0 0 256 256" xmlns="http://www.w3.org/2000/svg" xmlns:svg="http://www.w3.org/2000/svg"><path d="m 101.81818,89.725128 v 76.549742 l 66.90909,-38.27633 z M 250.65017,190.36102 c -2.944,11.14797 -11.6189,19.92652 -22.63272,22.90584 C 208.05381,218.68142 128,218.68142 128,218.68142 c 0,0 -80.053818,0 -100.017455,-5.41456 C 16.968728,210.28754 8.2938184,201.50899 5.3498181,190.36102 0,170.15662 0,128.00001 0,128.00001 c 0,0 0,-42.155169 5.3498181,-62.361035 C 8.2938184,54.491011 16.968728,45.712464 27.982545,42.731679 47.946182,37.318584 128,37.318584 128,37.318584 c 0,0 80.05381,0 100.01745,5.413095 11.01382,2.980785 19.68872,11.759332 22.63272,22.907296 C 256,85.844841 256,128.00001 256,128.00001 c 0,0 0,42.15661 -5.34983,62.36101" fill="#FFF" fill-rule="nonzero" /></svg>
